<?xml version="1.0" encoding="UTF-8"?><svg xmlns="http://www.w3.org/2000/svg" xmlns:xlink="http://www.w3.org/1999/xlink" viewBox="0 0 48 48" version="1.1"><g id="surface1"><path d="M40.633 29.027a19.099 19.099 0 0 0-7.04-.96c-2.07.038-4.222.417-6.433 1.12l-.773.278 5.843 1.824 1.575-.562s.726-.258 1.492-.372c.98-.14 1.976.106 1.976.106.555.133.852.266.961.531.102.32-.27.586-1.07.856l-1.426.543 5.567 1.738c1.918-.766 2.789-1.586 2.687-2.602-.054-1.011-1.23-1.808-3.36-2.5z" fill="#1565C0"/><path d="M22 28.094V25l-4.879 1.566z" fill="#1565C0"/><path d="M18.719 32.195l-1.367.485-1.247.449-1.335.531s-1.204.363-2.239.43c-1.031.066-2.133-.27-2.133-.27-.445-.164-.535-.53-.265-.797.265-.16.64-.375 1.066-.539l1.438-.527 2.562-.863-5.773-1.809-1.055.38-1.332.534c-2.023.852-3.094 1.758-3.039 2.559.105 1.168 1.441 2.023 3.84 2.668 3.117.84 6.281 1.011 9.515.523 0 0 2.543-.48 7.098-1.96z" fill="#FF9800"/><path d="M28.316 35.195l-2.71 1.028V40l5.324-2.07 2.867-1.02z" fill="#FF9800"/><path d="M22 28.094l-4.879-1.528-1.016.329-6.68 2.394 5.774 1.805L22 28.8z" fill="#00BCD4"/><path d="M32.23 31.293l-5.843-1.828-7.668 2.73 5.738 1.793c.836-.27 1.734-.574 2.703-.918 1.055-.367 4.402-1.539 4.402-1.539z" fill="#00BCD4"/><path d="M35.738 32.39l-.547.208-6.875 2.597 5.48 1.715 6.142-2.18 1.066-.476c.105-.04.2-.082.3-.121z" fill="#00BCD4"/><path d="M34.203 14.324c-1.125-1.515-3.094-2.754-6.016-3.765C24.54 9.379 21.474 8.519 19 8v29.977L25.605 40V15.059c0-.676.055-1.13.336-1.41.282-.391.563-.446.957-.278.954.277 1.403 1.125 1.403 2.527v10.23c2.137 1.013 4.05 1.122 5.453.06C35.214 25.172 36 23.375 36 20.68c0-2.813-.563-4.946-1.797-6.356z" fill="#F44336"/></g><metadata><rdf:RDF xmlns:rdf="http://www.w3.org/1999/02/22-rdf-syntax-ns#" xmlns:rdfs="http://www.w3.org/2000/01/rdf-schema#" xmlns:dc="http://purl.org/dc/elements/1.1/"><rdf:Description about="https://iconscout.com/legal#licenses" dc:title="playstation" dc:description="playstation" dc:publisher="Iconscout" dc:date="2017-12-15" dc:format="image/svg+xml" dc:language="en"><dc:creator><rdf:Bag><rdf:li>Icons8</rdf:li></rdf:Bag></dc:creator></rdf:Description></rdf:RDF></metadata></svg>